<svg xmlns="http://www.w3.org/2000/svg" version="1.1" xmlns:xlink="http://www.w3.org/1999/xlink" xmlns:svgjs="http://svgjs.dev/svgjs" width="1500" height="1500" viewBox="0 0 1500 1500"><rect width="1500" height="1500" fill="#ffffff"></rect><g transform="matrix(0.6666666666666666,0,0,0.6666666666666666,249.39393939393938,687.8278199937517)"><svg viewBox="0 0 396 49" data-background-color="#ffffff" preserveAspectRatio="xMidYMid meet" height="185" width="1500" xmlns="http://www.w3.org/2000/svg" xmlns:xlink="http://www.w3.org/1999/xlink"><g id="tight-bounds" transform="matrix(1,0,0,1,0.2400000000000091,0.20083908356352254)"><svg viewBox="0 0 395.52 48.598321832872934" height="48.598321832872934" width="395.52"><g><svg viewBox="0 0 477.34645817148817 58.652499999999996" height="48.598321832872934" width="395.52"><g><svg viewBox="0 0 477.34645817148817 58.652499999999996" height="58.652499999999996" width="477.34645817148817"><g id="textblocktransform"><svg viewBox="0 0 477.34645817148817 58.652499999999996" height="58.652499999999996" width="477.34645817148817" id="textblock"><g><svg viewBox="0 0 477.34645817148817 58.652499999999996" height="58.652499999999996" width="477.34645817148817"><g><svg><g></g><g></g></svg></g><g><svg><g><svg></svg></g><g></g></svg></g><g id="text-0"><svg viewBox="0 0 477.34645817148817 58.652499999999996" height="58.652499999999996" width="477.34645817148817"><g transform="matrix(1,0,0,1,0,1.8963667017409627)"><svg width="395.52" viewBox="3.9 -35.5 261.32000000000005 36.25" height="54.85976659651807" data-palette-color="#b6a522"><path d="M3.9 0L3.9-35 20.6-35 20.6-32.35 6.7-32.35 6.7-20.65 15.25-20.65 14.1-17.9 6.7-17.9 6.7 0 3.9 0ZM33.55 0Q28.15 0.55 25.75 0.55L25.75 0.55Q20.5 0.55 17.4-1.4 14.3-3.35 14.3-8.45L14.3-8.45 14.3-12.6Q14.3-17.55 17.75-19.25L17.75-19.25Q19.4-20.1 21.95-20.1L21.95-20.1Q24.3-20.1 26.7-19.33 29.1-18.55 30.75-17.3L30.75-17.3Q30.75-20.05 29.15-21.68 27.55-23.3 23-23.3L23-23.3 23.15-25.45Q27.95-25.45 30.22-23.93 32.5-22.4 33.02-20.3 33.55-18.2 33.55-14.9L33.55-14.9 33.55 0ZM30.75-15.15Q28.7-16.1 26.37-16.8 24.05-17.5 22.1-17.5L22.1-17.5Q17.05-17.5 17.05-12.45L17.05-12.45 17.05-8.1Q17.05-4.85 19.3-3.38 21.55-1.9 25.7-1.9L25.7-1.9Q27.85-1.9 30.75-2.3L30.75-2.3 30.75-15.15ZM39.8-6.35Q40.1-4.1 42.05-2.98 44-1.85 46.4-1.85L46.4-1.85Q48.65-1.85 50.5-2.88 52.35-3.9 52.35-6.2L52.35-6.2Q52.35-7.7 51.47-8.68 50.6-9.65 49.3-10.25 48-10.85 45.8-11.55L45.8-11.55Q43.35-12.35 41.8-13.05 40.25-13.75 39.1-15.03 37.95-16.3 37.75-18.25L37.75-18.25 37.7-18.85Q37.7-20.5 38.62-22.08 39.55-23.65 41.47-24.65 43.4-25.65 46.3-25.65L46.3-25.65Q47.9-25.65 49.12-25.33 50.35-25 51.05-24.65 51.75-24.3 51.9-24.2L51.9-24.2 50.95-21.9Q50.8-22 50.22-22.3 49.65-22.6 48.6-22.9 47.55-23.2 46.3-23.2L46.3-23.2Q43.9-23.2 42.2-22.08 40.5-20.95 40.5-18.95L40.5-18.95Q40.5-17.05 42.05-16.05 43.6-15.05 46.8-14.05L46.8-14.05Q49.5-13.15 51.15-12.35 52.8-11.55 53.97-10.08 55.15-8.6 55.15-6.25L55.15-6.25Q55.15-3.25 52.92-1.25 50.7 0.75 46.4 0.75L46.4 0.75Q43.55 0.75 41.47-0.23 39.4-1.2 38.32-2.8 37.25-4.4 37.15-6.35L37.15-6.35 39.8-6.35ZM75.79 0L75.79-17.15Q75.79-20.2 74.02-21.58 72.24-22.95 69.44-22.95L69.44-22.95Q67.74-22.95 65.99-22.48 64.24-22 62.89-21.25L62.89-21.25 62.89 0 60.09 0 60.09-35 62.89-35 62.89-23.7Q64.14-24.55 65.89-25.03 67.64-25.5 69.54-25.5L69.54-25.5Q72.14-25.5 74.29-24.55L74.29-24.55Q76.29-23.65 77.42-21.85 78.54-20.05 78.54-17.3L78.54-17.3 78.54 0 75.79 0ZM87.14-32.15Q86.49-32.15 85.97-32.68 85.44-33.2 85.44-33.85L85.44-33.85Q85.44-34.5 85.94-35 86.44-35.5 87.14-35.5L87.14-35.5Q87.84-35.5 88.32-35.02 88.79-34.55 88.79-33.85L88.79-33.85Q88.79-33.15 88.29-32.65 87.79-32.15 87.14-32.15L87.14-32.15ZM85.69 0L85.69-25.05 88.49-25.05 88.49 0 85.69 0ZM115.34-9.2Q115.34-5 113.04-2.25 110.74 0.5 106.09 0.5L106.09 0.5Q101.44 0.5 99.06-2.27 96.69-5.05 96.69-9.2L96.69-9.2 96.69-15.8Q96.69-20.55 99.11-23.08 101.54-25.6 106.09-25.6L106.09-25.6Q110.44-25.6 112.89-22.98 115.34-20.35 115.34-15.8L115.34-15.8 115.34-9.2ZM112.54-15.8Q112.54-19.55 110.81-21.3 109.09-23.05 106.09-23.05L106.09-23.05Q102.99-23.05 101.24-21.3 99.49-19.55 99.49-15.8L99.49-15.8 99.49-8.7Q99.49-5.7 101.26-3.85 103.04-2 106.09-2L106.09-2Q109.19-2 110.86-3.83 112.54-5.65 112.54-8.7L112.54-8.7 112.54-15.8ZM135.89 0L135.89-17.15Q135.89-20.2 134.11-21.58 132.34-22.95 129.54-22.95L129.54-22.95Q127.84-22.95 126.09-22.48 124.34-22 122.99-21.25L122.99-21.25 122.99 0 120.19 0 120.19-25.05 122.99-25.05 122.79-23.35Q123.99-24.4 125.84-24.93 127.69-25.45 129.69-25.45L129.69-25.45Q132.44-25.45 134.39-24.55L134.39-24.55Q136.39-23.65 137.51-21.85 138.64-20.05 138.64-17.3L138.64-17.3 138.64 0 135.89 0ZM145.88 0L145.88-35 162.58-35 162.58-32.35 148.68-32.35 148.68-20.65 157.23-20.65 156.08-17.9 148.68-17.9 148.68 0 145.88 0ZM181.93 0L182.13-2.55Q180.93-1.05 179.11-0.25 177.28 0.55 175.43 0.55L175.43 0.55Q166.03 0.55 166.03-8.6L166.03-8.6 166.03-25.05 168.83-25.05 168.83-8.25Q168.83-5.05 170.61-3.5 172.38-1.95 175.43-1.95L175.43-1.95Q178.43-1.95 180.16-3.48 181.88-5 181.88-8.25L181.88-8.25 181.88-25.05 184.68-25.05 184.68 0 181.93 0ZM191.03-6.35Q191.33-4.1 193.28-2.98 195.23-1.85 197.63-1.85L197.63-1.85Q199.88-1.85 201.73-2.88 203.58-3.9 203.58-6.2L203.58-6.2Q203.58-7.7 202.7-8.68 201.83-9.65 200.53-10.25 199.23-10.85 197.03-11.55L197.03-11.55Q194.58-12.35 193.03-13.05 191.48-13.75 190.33-15.03 189.18-16.3 188.98-18.25L188.98-18.25 188.93-18.85Q188.93-20.5 189.85-22.08 190.78-23.65 192.7-24.65 194.63-25.65 197.53-25.65L197.53-25.65Q199.13-25.65 200.35-25.33 201.58-25 202.28-24.65 202.98-24.3 203.13-24.2L203.13-24.2 202.18-21.9Q202.03-22 201.45-22.3 200.88-22.6 199.83-22.9 198.78-23.2 197.53-23.2L197.53-23.2Q195.13-23.2 193.43-22.08 191.73-20.95 191.73-18.95L191.73-18.95Q191.73-17.05 193.28-16.05 194.83-15.05 198.03-14.05L198.03-14.05Q200.73-13.15 202.38-12.35 204.03-11.55 205.2-10.08 206.38-8.6 206.38-6.25L206.38-6.25Q206.38-3.25 204.15-1.25 201.93 0.75 197.63 0.75L197.63 0.75Q194.78 0.75 192.7-0.23 190.63-1.2 189.55-2.8 188.48-4.4 188.38-6.35L188.38-6.35 191.03-6.35ZM213.73-32.15Q213.08-32.15 212.55-32.68 212.03-33.2 212.03-33.85L212.03-33.85Q212.03-34.5 212.53-35 213.03-35.5 213.73-35.5L213.73-35.5Q214.43-35.5 214.9-35.02 215.38-34.55 215.38-33.85L215.38-33.85Q215.38-33.15 214.88-32.65 214.38-32.15 213.73-32.15L213.73-32.15ZM212.28 0L212.28-25.05 215.08-25.05 215.08 0 212.28 0ZM241.92-9.2Q241.92-5 239.62-2.25 237.32 0.5 232.67 0.5L232.67 0.5Q228.02 0.5 225.65-2.27 223.27-5.05 223.27-9.2L223.27-9.2 223.27-15.8Q223.27-20.55 225.7-23.08 228.12-25.6 232.67-25.6L232.67-25.6Q237.02-25.6 239.47-22.98 241.92-20.35 241.92-15.8L241.92-15.8 241.92-9.2ZM239.12-15.8Q239.12-19.55 237.4-21.3 235.67-23.05 232.67-23.05L232.67-23.05Q229.57-23.05 227.82-21.3 226.07-19.55 226.07-15.8L226.07-15.8 226.07-8.7Q226.07-5.7 227.85-3.85 229.62-2 232.67-2L232.67-2Q235.77-2 237.45-3.83 239.12-5.65 239.12-8.7L239.12-8.7 239.12-15.8ZM262.47 0L262.47-17.15Q262.47-20.2 260.7-21.58 258.92-22.95 256.12-22.95L256.12-22.95Q254.42-22.95 252.67-22.48 250.92-22 249.57-21.25L249.57-21.25 249.57 0 246.77 0 246.77-25.05 249.57-25.05 249.37-23.35Q250.57-24.4 252.42-24.93 254.27-25.45 256.27-25.45L256.27-25.45Q259.02-25.45 260.97-24.55L260.97-24.55Q262.97-23.65 264.1-21.85 265.22-20.05 265.22-17.3L265.22-17.3 265.22 0 262.47 0Z" opacity="1" transform="matrix(1,0,0,1,0,0)" fill="#b6a522" class="wordmark-text-0" data-fill-palette-color="primary"></path></svg></g><g><svg xmlns="http://www.w3.org/2000/svg" xmlns:xlink="http://www.w3.org/1999/xlink" version="1.1" x="409.3675" y="0" viewBox="-346 263.755 99.959 86.245" enable-background="new -346 256 100 100" xml:space="preserve" height="58.652499999999996" width="67.9789581714882" class="icon-cg-0" data-fill-palette-color="accent" id="cg-0"><path d="M-248.462 340.602c-1.34 0-2.427-1.086-2.427-2.426 0-1.335 1.087-2.422 2.427-2.422 1.336 0 2.421 1.087 2.421 2.422C-246.041 339.516-247.126 340.602-248.462 340.602L-248.462 340.602zM-255.256 340.602c-1.335 0-2.426-1.086-2.426-2.426 0-1.335 1.091-2.422 2.426-2.422 1.337 0 2.428 1.087 2.428 2.422C-252.828 339.516-253.919 340.602-255.256 340.602L-255.256 340.602zM-262.048 340.602c-1.336 0-2.422-1.086-2.422-2.426 0-1.335 1.086-2.422 2.422-2.422 1.34 0 2.427 1.087 2.427 2.422C-259.621 339.516-260.708 340.602-262.048 340.602L-262.048 340.602zM-268.837 340.602c-1.336 0-2.426-1.086-2.426-2.426 0-1.335 1.09-2.422 2.426-2.422s2.427 1.087 2.427 2.422C-266.41 339.516-267.501 340.602-268.837 340.602L-268.837 340.602z" fill="#6f6971" data-fill-palette-color="accent"></path><path d="M-262.044 331.868c-1.34 0-2.426-1.085-2.426-2.421 0-1.34 1.086-2.426 2.426-2.426 1.336 0 2.423 1.086 2.423 2.426C-259.621 330.783-260.708 331.868-262.044 331.868L-262.044 331.868zM-268.837 331.868c-1.336 0-2.426-1.085-2.426-2.421 0-1.34 1.09-2.426 2.426-2.426s2.427 1.086 2.427 2.426C-266.41 330.783-267.501 331.868-268.837 331.868L-268.837 331.868z" fill="#6f6971" data-fill-palette-color="accent"></path><polygon points="-311.673,340.6 -275.113,340.6 -275.113,293.874 -282.376,293.874 -282.376,324.836 -290.299,318.269   -297.269,324.048 -304.873,317.742 -311.633,324.594 " fill="#6f6971" data-fill-palette-color="accent"></polygon><polygon points="-315.932,345.301 -315.864,322.241 -304.585,310.854 -297.787,316.884 -294.464,313.561 -304.585,303.439   -315.864,314.719 -326.204,304.379 -335.604,313.779 -335.604,263.755 -346,263.755 -346,350 -292.365,350 -292.365,345.301 " fill="#6f6971" data-fill-palette-color="accent"></polygon></svg></g></svg></g></svg></g></svg></g></svg></g><g></g></svg></g><defs></defs></svg><rect width="395.52" height="48.598321832872934" fill="none" stroke="none" visibility="hidden"></rect></g></svg></g></svg>